<svg preserveAspectRatio="none" width="100%" height="100%" overflow="visible" style="display: block;" viewBox="0 0 24 24" fill="none" xmlns="http://www.w3.org/2000/svg">
<g id="stack_icons">
<path id="Vector" d="M10.0064 12.2761C10.0755 11.0522 10.6796 9.974 11.591 9.20962C12.4848 8.45888 13.6878 8 15.0004 8C16.3116 8 17.5147 8.45888 18.4091 9.20962C19.3198 9.97393 19.9239 11.0522 19.9938 12.2748C20.0629 13.5323 19.5534 14.7005 18.6596 15.5665C17.7483 16.4473 16.4519 17 15.0004 17C13.5488 17 12.25 16.4473 11.3392 15.5665C10.4448 14.7005 9.93653 13.5323 10.0064 12.2761Z" fill="var(--fill-0, white)"/>
<path id="Vector_2" d="M12.0038 12.3756C12.0453 11.6957 12.4078 11.0966 12.9546 10.672C13.4909 10.255 14.2126 10 15.0003 10C15.787 10 16.5088 10.255 17.0455 10.672C17.5919 11.0966 17.9544 11.6957 17.9962 12.375C18.0378 13.0735 17.7321 13.7225 17.1958 14.2036C16.649 14.6929 15.8712 15 15.0003 15C14.1293 15 13.35 14.6929 12.8035 14.2036C12.2669 13.7225 11.9619 13.0735 12.0038 12.3756Z" fill="var(--fill-0, #265787)"/>
<path id="Vector_3" d="M8.12584 13.6785C8.13053 13.9194 8.21373 14.3878 8.33865 14.7535C8.60108 15.5277 9.04623 16.244 9.66568 16.8751C10.3014 17.5239 11.0841 18.0451 11.9883 18.415C12.9386 18.8036 13.9683 19.0016 15.0379 19C16.1057 18.9986 17.1354 18.7967 18.0857 18.4052C18.9899 18.0316 19.7719 17.5083 20.4066 16.8592C21.0257 16.2253 21.4701 15.5079 21.7333 14.7337C21.8656 14.3425 21.9492 13.9455 21.9827 13.5471C22.0155 13.1541 22.0016 12.759 21.9414 12.3688C21.8236 11.6034 21.5368 10.8853 21.0951 10.2306C20.6912 9.62907 20.1706 9.10245 19.5515 8.65913L19.5529 8.65819L13.3052 4.22902C13.2995 4.22512 13.2949 4.22094 13.2889 4.21733C12.879 3.92679 12.1897 3.9278 11.7389 4.21892C11.2831 4.51335 11.2309 5.00031 11.6365 5.30737L11.6348 5.30903L14.2407 7.2655L6.29827 7.27329H6.28764C5.63116 7.27401 5.00014 7.67166 4.87514 8.1742C4.74678 8.68618 5.19272 9.11089 5.8753 9.11319L5.8742 9.11543L9.89998 9.10822L2.71624 14.1993C2.7071 14.2055 2.69718 14.212 2.68874 14.2182C2.01109 14.6973 1.79202 15.4939 2.21882 15.9981C2.65202 16.5108 3.57311 16.5117 4.2578 16.001L8.17842 13.0385C8.17842 13.0385 8.12123 13.4384 8.12584 13.6785ZM18.2004 15.0177C17.3926 15.7776 16.2616 16.2084 15.0379 16.2107C13.8124 16.2126 12.6815 15.7856 11.8736 15.0271C11.4789 14.6574 11.189 14.2321 11.0101 13.779C10.8341 13.3332 10.7665 12.8571 10.8119 12.3845C10.8545 11.9184 11.0048 11.4738 11.2447 11.0715C11.4803 10.6762 11.8048 10.3189 12.2056 10.0166C12.9908 9.42588 13.9905 9.10598 15.0361 9.10468C16.0828 9.10338 17.0818 9.42033 17.8678 10.0092C18.2678 10.3101 18.592 10.6661 18.8276 11.0609C19.0706 11.4653 19.2187 11.9124 19.2622 12.3731C19.3069 12.8454 19.239 13.3211 19.0632 13.7666C18.884 14.221 18.5951 14.6464 18.2004 15.0177Z" fill="var(--fill-0, #EA7600)"/>
</g>
</svg>
