<svg preserveAspectRatio="none" width="100%" height="100%" overflow="visible" style="display: block;" viewBox="0 0 24 24" fill="none" xmlns="http://www.w3.org/2000/svg">
<g id="stack_icons">
<path id="Vector" d="M6.19946 3.00977H17.8201C19.5765 3.00977 21.0098 4.46533 21.0098 6.28118V17.7383C21.0098 19.5398 19.5906 21.0098 17.8201 21.0098H6.19946C4.42897 20.9954 3.00977 19.5398 3.00977 17.7239V6.28118C3.00977 4.46533 4.42897 3.00977 6.19946 3.00977Z" fill="var(--fill-0, #330000)"/>
<path id="Vector_2" d="M11.4952 13.429H8.97776L8.47174 14.8729C8.45909 14.9307 8.40848 14.9653 8.34523 14.9538H7.08018C7.00427 14.9538 6.99162 14.9191 7.00427 14.8383L9.18017 9.13201C9.20547 9.07426 9.21812 9.00495 9.24342 8.92409C9.26872 8.79703 9.28137 8.65842 9.28137 8.5198C9.26872 8.48515 9.30667 8.46205 9.33197 8.4505H11.0777C11.1283 8.4505 11.1537 8.4736 11.1663 8.4967L13.6332 14.8383C13.6585 14.9076 13.6332 14.9422 13.5699 14.9422H12.153C12.1024 14.9538 12.0645 14.9191 12.0392 14.8729L11.4952 13.429ZM9.36992 12.17H11.0777C11.0398 12.0429 10.9892 11.8812 10.9259 11.731C10.8627 11.5693 10.7994 11.3845 10.7488 11.1997C10.6856 11.0033 10.6223 10.8185 10.5591 10.6337C10.4958 10.4373 10.4326 10.264 10.382 10.0908C10.3314 9.91749 10.2808 9.75578 10.2302 9.60561H10.2175C10.1543 9.87129 10.0784 10.137 9.9898 10.4026C9.8886 10.703 9.78739 11.0033 9.67354 11.3152C9.57233 11.6271 9.47113 11.9158 9.36992 12.17ZM15.1386 9.54785C14.9109 9.55941 14.6958 9.47855 14.544 9.32838C14.3922 9.17822 14.3036 8.9703 14.3163 8.76238C14.3036 8.55446 14.3922 8.35809 14.5566 8.21947C14.7211 8.08086 14.9362 8 15.1512 8C15.4169 8 15.6193 8.06931 15.7711 8.21947C15.9229 8.36964 15.9988 8.56601 15.9988 8.76238C16.0115 8.9703 15.9229 9.17822 15.7584 9.32838C15.594 9.47855 15.3663 9.55941 15.1386 9.54785ZM14.3795 14.896V10.1485C14.3795 10.0908 14.4048 10.0677 14.4681 10.0677H15.809C15.8723 10.0677 15.8976 10.1023 15.8976 10.1485V14.896C15.8976 14.9653 15.8723 15 15.809 15H14.4807C14.4175 14.9884 14.3795 14.9538 14.3795 14.896Z" fill="var(--fill-0, #FF9A00)"/>
</g>
</svg>
