<svg preserveAspectRatio="none" width="100%" height="100%" overflow="visible" style="display: block;" viewBox="0 0 24 24" fill="none" xmlns="http://www.w3.org/2000/svg">
<g id="stack_icons">
<path id="Vector" fill-rule="evenodd" clip-rule="evenodd" d="M8.64323 3.17398C10.084 3.07307 11.3538 4.07556 11.5395 5.45959C11.7162 6.77364 10.8161 8.04498 9.46378 8.34329C9.12495 8.41842 8.7493 8.39706 8.38985 8.44273C7.54083 8.54268 6.75087 8.9278 6.14918 9.53508L6.14181 9.53876L6.13445 9.53802L6.12929 9.5336L6.12708 9.52624C6.12702 9.52179 6.1283 9.51742 6.13076 9.51372C6.13456 9.50832 6.13661 9.5019 6.13666 9.4953C6.12756 8.26082 6.12486 7.0263 6.12855 5.79178C6.13076 4.42175 7.2128 3.27563 8.64323 3.17398Z" fill="#050715"/>
<path id="Vector_2" fill-rule="evenodd" clip-rule="evenodd" d="M8.79439 14.6237C6.96178 14.609 5.64846 12.8044 6.28634 11.1169C6.46503 10.6501 6.7698 10.242 7.16672 9.93823C7.56364 9.63443 8.03711 9.44679 8.53438 9.39622C8.84742 9.36307 9.22382 9.37117 9.52508 9.31593C11.0748 9.02867 12.2725 7.84277 12.5141 6.33353C12.5679 5.99912 12.5392 5.59989 12.6187 5.24486C12.9848 3.60082 14.869 2.67862 16.4511 3.42109C17.2754 3.80927 17.8285 4.54217 17.9655 5.41722C17.9928 5.59621 18.0024 5.81866 17.9928 6.08382C17.8138 10.848 13.7442 14.6628 8.79439 14.6222M11.1036 15.3809C11.0958 15.378 11.0895 15.3722 11.0859 15.3647V15.3596L11.0874 15.3551C11.0874 15.3529 11.0874 15.3522 11.0896 15.3515L11.094 15.3492C12.9745 14.9183 14.603 14.0529 15.9812 12.7521C16.0055 12.7292 16.0283 12.7307 16.049 12.7572C16.2692 13.0489 16.5005 13.3612 16.6846 13.6595C17.4362 14.8626 17.8801 16.2322 17.9773 17.6474C17.9972 17.9354 18.0038 18.1578 17.9965 18.3154C17.928 19.7061 16.7649 20.8272 15.2969 20.8353C13.9983 20.8434 12.8566 19.9573 12.6106 18.7176C12.5517 18.4237 12.5694 18.0179 12.5207 17.7078C12.3675 16.7539 11.9013 15.9812 11.122 15.392L11.1036 15.3809ZM8.35613 20.7962C7.25273 20.6047 6.36515 19.7474 6.16702 18.6815C6.13531 18.4608 6.12176 18.2379 6.1265 18.0149V14.4897C6.1265 14.4779 6.13019 14.4764 6.13902 14.4838C6.86014 15.1246 7.61881 15.5164 8.60877 15.5813L8.87394 15.5894C10.1637 15.6314 11.256 16.4762 11.5079 17.7033C11.8807 19.5183 10.2381 21.1248 8.35539 20.797L8.35613 20.7962Z" fill="#050715"/>
</g>
</svg>
