<svg preserveAspectRatio="xMidYMid meet" width="100%" height="100%" overflow="visible" style="display: block;" viewBox="35 33 35 40" fill="none" xmlns="http://www.w3.org/2000/svg">
<g id="Group 112">
<g id="Mask Group">
<mask id="mask0_0_28" style="mask-type:alpha" maskUnits="userSpaceOnUse" x="37" y="36" width="30" height="33">
<path id="Union" fill-rule="evenodd" clip-rule="evenodd" d="M53.5499 36.5044C52.7175 36.002 51.678 35.9913 50.8354 36.4762L39.0654 43.2507C38.2383 43.7267 37.7277 44.6077 37.7258 45.562L37.6987 59.2909C37.6968 60.2432 38.2017 61.1245 39.0241 61.6046L50.2695 68.1691C51.1103 68.6599 52.1514 68.6548 52.9872 68.1558L64.7003 61.1627C65.5083 60.6804 66.0031 59.8087 66.0031 58.8677V45.5288C66.0031 44.5923 65.513 43.7242 64.7112 43.2403L53.5499 36.5044Z" fill="var(--fill-0, #CEB7FF)"/>
</mask>
<g mask="url(#mask0_0_28)">
<g id="Group 91">
<path id="Vector 44" d="M58.6301 39.5867L44.2123 47.8728V64.6107L51.6284 68.9609L66.0047 60.3848V44.0198L58.6301 39.5867Z" fill="var(--fill-0, #E9DEFF)"/>
<path id="Vector 45" d="M50.2116 33.7874L66.0049 44.0285C61.3367 46.6931 51.96 52.06 51.6928 52.2715L35.1615 42.6322L50.2116 33.7874Z" fill="var(--fill-0, #5016C8)"/>
<path id="Vector" d="M51.7021 52.2976L51.6524 69.0521L37.1947 60.6371L37.2445 43.8826L51.7021 52.2976Z" fill="var(--fill-0, #FF8760)"/>
<path id="Vector_2" d="M51.851 52.2943L35.7885 43.2811L51.851 35.5477V52.2943Z" fill="var(--fill-0, #783EEF)"/>
<path id="Vector_3" d="M51.6857 52.574L51.6227 69.0522L37.476 60.8289L51.6857 52.574Z" fill="var(--fill-0, #FF6432)"/>
<path id="Vector 46" d="M66.0043 44.0391V60.5182L51.6928 52.311L66.0043 44.0391Z" fill="var(--fill-0, #CEB7FF)"/>
</g>
</g>
</g>
<g id="Ellipse 4" opacity="0.5" filter="url(#filter0_f_0_28)">
<circle cx="51.6618" cy="44.5309" r="3.79725" fill="var(--fill-0, white)"/>
</g>
<g id="Ellipse 5" opacity="0.7" filter="url(#filter1_f_0_28)">
<circle cx="58.3769" cy="56.1248" r="4.61" fill="var(--fill-0, white)"/>
</g>
<g id="Ellipse 6" opacity="0.8" filter="url(#filter2_f_0_28)">
<circle cx="44.5309" cy="57.173" r="3.79725" fill="var(--fill-0, white)"/>
</g>
<path id="Rectangle 87" opacity="0.7" d="M39.9114 45.6424L43.5235 47.6799V64.2582L39.9114 62.1049V45.6424Z" fill="url(#paint0_linear_0_28)"/>
</g>
<defs>
<filter id="filter0_f_0_28" x="7.13086" y="0" width="89.0619" height="89.0619" filterUnits="userSpaceOnUse" color-interpolation-filters="sRGB">
<feFlood flood-opacity="0" result="BackgroundImageFix"/>
<feBlend mode="normal" in="SourceGraphic" in2="BackgroundImageFix" result="shape"/>
<feGaussianBlur stdDeviation="20.3668" result="effect1_foregroundBlur_0_28"/>
</filter>
<filter id="filter1_f_0_28" x="13.0332" y="10.7811" width="90.6874" height="90.6874" filterUnits="userSpaceOnUse" color-interpolation-filters="sRGB">
<feFlood flood-opacity="0" result="BackgroundImageFix"/>
<feBlend mode="normal" in="SourceGraphic" in2="BackgroundImageFix" result="shape"/>
<feGaussianBlur stdDeviation="20.3668" result="effect1_foregroundBlur_0_28"/>
</filter>
<filter id="filter2_f_0_28" x="0" y="12.6421" width="89.0619" height="89.0619" filterUnits="userSpaceOnUse" color-interpolation-filters="sRGB">
<feFlood flood-opacity="0" result="BackgroundImageFix"/>
<feBlend mode="normal" in="SourceGraphic" in2="BackgroundImageFix" result="shape"/>
<feGaussianBlur stdDeviation="20.3668" result="effect1_foregroundBlur_0_28"/>
</filter>
<linearGradient id="paint0_linear_0_28" x1="41.7174" y1="45.6424" x2="41.3945" y2="61.4797" gradientUnits="userSpaceOnUse">
<stop stop-color="white"/>
<stop offset="1" stop-color="white" stop-opacity="0"/>
</linearGradient>
</defs>
</svg>
