<svg preserveAspectRatio="xMidYMid meet" width="40" height="40" overflow="visible" style="display: block;" viewBox="0 0 40 40" fill="none" xmlns="http://www.w3.org/2000/svg">
<g id="case_logo">
<rect width="40" height="40" rx="8" fill="var(--fill-0, #15CCC2)"/>
<path id="Subtract" d="M20.1836 7.50879C25.6052 7.50879 30.0009 11.9036 30.001 17.3252C30.001 22.337 26.2451 26.4719 21.3945 27.0684C20.7299 27.1501 20.1837 27.6849 20.1836 28.3545V32.1465C11.7228 28.2899 10.3672 21.5324 10.3672 17.3252C10.3672 11.9037 14.7621 7.509 20.1836 7.50879ZM20.1836 13.1182C17.8602 13.1183 15.9767 15.0018 15.9766 17.3252C15.9766 19.6487 17.8601 21.5321 20.1836 21.5322C22.5072 21.5322 24.3906 19.6488 24.3906 17.3252C24.3905 15.0017 22.5071 13.1182 20.1836 13.1182Z" fill="var(--fill-0, white)"/>
</g>
</svg>
