<svg preserveAspectRatio="none" width="100%" height="100%" overflow="visible" style="display: block;" viewBox="0 0 24 24" fill="none" xmlns="http://www.w3.org/2000/svg">
<g id="stack_icons">
<path id="Subtract" d="M14.5996 4C15.7041 4.00011 16.5996 4.8955 16.5996 6V11.5996C16.5996 12.7041 15.7041 13.5995 14.5996 13.5996H13C11.8954 13.5996 11 14.495 11 15.5996V18C11 19.1045 10.1045 19.9999 9 20C7.89543 20 7 19.1046 7 18V6C7 4.89543 7.89543 4 9 4H14.5996ZM11.7988 6.40039C10.4734 6.40039 9.39856 7.47442 9.39844 8.7998C9.39844 10.1253 10.4733 11.2002 11.7988 11.2002C13.1241 11.2 14.1982 10.1252 14.1982 8.7998C14.1981 7.47455 13.1241 6.4006 11.7988 6.40039Z" fill="var(--fill-0, black)"/>
</g>
</svg>
