<svg preserveAspectRatio="none" width="100%" height="100%" overflow="visible" style="display: block;" viewBox="0 0 24 24" fill="none" xmlns="http://www.w3.org/2000/svg">
<g id="stack_icons">
<path id="Vector" d="M18.6729 2V8.06H21V16.6833H18.4843V22L12.4526 16.8383V21.9592H11.5174V16.8325L5.47886 22V16.6125H3V7.99H5.472V2L11.5174 7.41167V2.15833H12.4517V7.56667L18.6729 2ZM12.4526 9.53667V15.6358L17.5491 19.9975V14.0333L12.4526 9.53667ZM11.5106 9.47L6.414 13.9683V19.9975L11.5106 15.6358V9.47083V9.47ZM18.4843 15.7867H20.0649V8.9575H13.2514L18.4843 13.5742V15.7867ZM10.7854 8.88667H3.93429V15.7158H5.47714V13.5692L10.7846 8.88583L10.7854 8.88667ZM6.40714 4.06333V7.98833H10.7914L6.40714 4.06333ZM17.7377 4.06333L13.3534 7.98833H17.7377V4.06333Z" fill="var(--fill-0, #22B8CD)"/>
</g>
</svg>
