<svg preserveAspectRatio="none" width="100%" height="100%" overflow="visible" style="display: block;" viewBox="0 0 24 24" fill="none" xmlns="http://www.w3.org/2000/svg">
<g id="stack_icons">
<path id="Vector" d="M6.18755 3H17.8125C19.575 3 21 4.46149 21 6.26928V17.7307C21 19.5385 19.575 21 17.8125 21H6.18755C4.42495 21 3 19.5385 3 17.7307V6.26928C3 4.46149 4.42495 3 6.18755 3Z" fill="var(--fill-0, #001E36)"/>
<path id="Vector_2" d="M9.43759 8C9.20907 8 8.98055 8 8.74446 8.0075C8.50823 8.01486 8.28728 8.01486 8.08161 8.02236C7.87595 8.02972 7.68556 8.02972 7.50274 8.03708C7.3275 8.04444 7.20567 8.04444 7.07613 8.04444C7.02285 8.04444 7 8.07403 7 8.12597V15.7482C7 15.8149 7.03042 15.8446 7.09141 15.8446H8.56922C8.62249 15.8371 8.66063 15.7926 8.65291 15.7408V13.3631C8.79759 13.3631 8.90428 13.3631 8.98055 13.3704C9.05668 13.3778 9.17851 13.3778 9.36132 13.3778C9.98604 13.3778 10.5573 13.3111 11.0752 13.126C11.5704 12.9482 11.997 12.6371 12.3017 12.2222C12.6064 11.8074 12.7587 11.2815 12.7587 10.6444C12.7587 10.3111 12.6979 9.99264 12.5836 9.68153C12.4625 9.36457 12.2729 9.07659 12.0274 8.83708C11.7378 8.56342 11.3891 8.3559 11.0067 8.22958C10.58 8.07403 10.0622 8 9.43759 8ZM9.60755 9.45903C9.87892 9.46403 10.1431 9.51014 10.3897 9.60736C10.6106 9.68889 10.7934 9.83708 10.923 10.0296C11.0445 10.2288 11.1052 10.4575 11.0982 10.689C11.0982 11.0149 11.0219 11.2668 10.862 11.4519C10.6943 11.6371 10.4811 11.7779 10.2374 11.8446C9.95548 11.9335 9.6584 11.9778 9.36132 11.9778H8.95756C8.86615 11.9778 8.76732 11.9704 8.66062 11.9631V9.47417C8.7139 9.46667 8.82059 9.45931 8.97298 9.46681C9.11766 9.45931 9.29277 9.45931 9.49087 9.45931C9.52991 9.45838 9.5688 9.45829 9.60755 9.45903ZM15.9961 9.83722C15.4552 9.83722 15.0058 9.91861 14.6478 10.0964C14.3203 10.2446 14.0384 10.4815 13.848 10.7778C13.6805 11.0519 13.5889 11.3556 13.5889 11.6742C13.5824 11.9362 13.6426 12.1958 13.7642 12.4297C13.9066 12.6788 14.1045 12.8939 14.3432 13.0593C14.6783 13.2822 15.0419 13.4615 15.4248 13.5926C15.798 13.7333 16.0494 13.8444 16.1714 13.9407C16.2932 14.0371 16.3542 14.1333 16.3542 14.2371C16.3542 14.3704 16.2703 14.4964 16.1485 14.5482C16.0114 14.6149 15.8057 14.6519 15.5162 14.6519C15.2116 14.6519 14.9068 14.6149 14.6173 14.5408C14.2849 14.4686 13.9662 14.3462 13.6728 14.1779C13.6499 14.1631 13.6271 14.1557 13.6042 14.1706C13.5814 14.1853 13.5738 14.2149 13.5738 14.2371V15.526C13.5662 15.5853 13.6042 15.6371 13.6576 15.6667C13.9047 15.7789 14.1659 15.8586 14.4346 15.9038C14.7774 15.9704 15.12 16 15.4704 16C16.0188 16 16.476 15.9186 16.8492 15.7631C17.192 15.6297 17.4891 15.4001 17.7023 15.1038C17.902 14.8124 18.0056 14.4687 17.9994 14.1186C18.0069 13.8541 17.9467 13.592 17.8243 13.3557C17.6794 13.1037 17.4738 12.8964 17.2224 12.7408C16.8547 12.5163 16.4609 12.3347 16.0494 12.2C15.8656 12.126 15.6851 12.0445 15.5085 11.9556C15.4095 11.9038 15.3181 11.8371 15.2496 11.7556C15.2039 11.6963 15.1734 11.6297 15.1734 11.5631C15.1734 11.4964 15.1963 11.4224 15.2343 11.3631C15.2877 11.289 15.3714 11.2371 15.4704 11.2149C15.6152 11.1779 15.7752 11.1556 15.9274 11.1629C16.2169 11.1629 16.4987 11.2 16.7806 11.2593C17.0397 11.3111 17.2834 11.3926 17.5119 11.5112C17.5423 11.526 17.5805 11.526 17.649 11.5112C17.6609 11.5027 17.6706 11.4915 17.6772 11.4786C17.6838 11.4657 17.6872 11.4515 17.6872 11.4371V10.2297C17.6872 10.2 17.6794 10.1704 17.6719 10.1408C17.6566 10.1113 17.6262 10.0815 17.5957 10.0742C17.3857 9.99066 17.1655 9.9334 16.9406 9.90375C16.6278 9.85946 16.3122 9.83732 15.9961 9.83722Z" fill="var(--fill-0, #31A8FF)"/>
</g>
</svg>
