<svg width="32" height="32" viewBox="0 0 32 32" fill="none" xmlns="http://www.w3.org/2000/svg">
<path d="M14.6774 7.67723L9.24404 10.6932C8.82029 10.9297 8.46751 11.2752 8.22227 11.6939C7.97704 12.1126 7.84829 12.5893 7.84937 13.0746V18.9252C7.84829 19.4105 7.97704 19.8872 8.22227 20.3059C8.46751 20.7246 8.82029 21.0701 9.24404 21.3066L14.6774 24.3226C15.0819 24.5477 15.5371 24.6658 16 24.6658C16.463 24.6658 16.9182 24.5477 17.3227 24.3226L22.756 21.3066C23.1798 21.0701 23.5326 20.7246 23.7778 20.3059C24.023 19.8872 24.1518 19.4105 24.1507 18.9252V13.0746C24.1518 12.5893 24.023 12.1126 23.7778 11.6939C23.5326 11.2752 23.1798 10.9297 22.756 10.6932L17.3227 7.67723C16.9182 7.45213 16.463 7.33398 16 7.33398C15.5371 7.33398 15.0819 7.45213 14.6774 7.67723Z" stroke="#5577E5" stroke-width="2"/>
<path d="M23.5987 11.4355L16 15.9995M16 15.9995L8.40137 11.4355M16 15.9995V24.6582" stroke="#5577E5" stroke-width="2"/>
<path d="M28.3334 10.518V7.77668C28.3334 6.68647 27.9003 5.6409 27.1294 4.87C26.3585 4.0991 25.313 3.66602 24.2227 3.66602H20.1107M20.1107 28.3327H24.2227C25.313 28.3327 26.3585 27.8996 27.1294 27.1287C27.9003 26.3578 28.3334 25.3122 28.3334 24.222V21.4793M3.66675 21.4807V24.222C3.66675 25.3122 4.09983 26.3578 4.87073 27.1287C5.64163 27.8996 6.6872 28.3327 7.77741 28.3327H11.8894M11.8894 3.66602H7.77741C6.6872 3.66602 5.64163 4.0991 4.87073 4.87C4.09983 5.6409 3.66675 6.68647 3.66675 7.77668V10.5193" stroke="#5577E5" stroke-width="2" stroke-linecap="round" stroke-linejoin="round"/>
</svg>
