<svg preserveAspectRatio="none" width="100%" height="100%" overflow="visible" style="display: block;" viewBox="0 0 20 20" fill="none" xmlns="http://www.w3.org/2000/svg">
<g id="social_icon">
<path id="Vector" d="M6.20169 4.45835C6.73419 4.45835 7.22669 4.50002 7.67669 4.62335C8.12752 4.70585 8.49669 4.87085 8.82419 5.07668C9.15252 5.2828 9.39835 5.57141 9.56169 5.94252C9.72585 6.31335 9.80835 6.76752 9.80835 7.26168C9.80835 7.83918 9.68502 8.33335 9.39835 8.70418C9.15252 9.07585 8.74252 9.40502 8.25085 9.65252C8.94752 9.85918 9.48002 10.23 9.80835 10.7242C10.1367 11.2183 10.3409 11.8375 10.3409 12.5383C10.3409 13.1158 10.2175 13.61 10.0125 14.0225C9.80835 14.435 9.48002 14.8058 9.11085 15.0533C8.70967 15.3183 8.26644 15.5133 7.80002 15.63C7.30835 15.7542 6.81669 15.8367 6.32502 15.8367H0.83252V4.45835H6.20169ZM5.87335 9.07502C6.32419 9.07502 6.69335 8.95168 6.98002 8.74585C7.26669 8.54002 7.39002 8.16835 7.39002 7.71502C7.39002 7.46752 7.34835 7.22002 7.26669 7.05585C7.18502 6.89168 7.06169 6.76668 6.89835 6.64335C6.73135 6.54955 6.55174 6.48024 6.36502 6.43752C6.16002 6.39585 5.95585 6.39585 5.70919 6.39585H3.33252V9.07585L5.87335 9.07502ZM5.99669 13.94C6.24252 13.94 6.48835 13.8983 6.69335 13.8575C6.89835 13.8158 7.10335 13.7342 7.26669 13.61C7.43302 13.4886 7.57258 13.3343 7.67669 13.1567C7.75835 12.9508 7.84085 12.7033 7.84085 12.415C7.84085 11.8375 7.67669 11.425 7.34919 11.1367C7.02085 10.8892 6.57002 10.7658 6.03752 10.7658H3.33252V13.9408L5.99669 13.94ZM13.9067 13.8983C14.2345 14.2283 14.7261 14.3933 15.3817 14.3933C15.8325 14.3933 16.2425 14.27 16.57 14.0642C16.8984 13.8164 17.1034 13.5689 17.185 13.3217H19.1934C18.865 14.3108 18.3734 15.0117 17.7184 15.465C17.0617 15.8775 16.2834 16.125 15.3409 16.125C14.7379 16.1259 14.1401 16.014 13.5784 15.795C13.0726 15.6064 12.6218 15.2948 12.2667 14.8883C11.8853 14.5095 11.6038 14.0419 11.4475 13.5275C11.2425 12.9917 11.16 12.415 11.16 11.755C11.16 11.1367 11.2425 10.56 11.4475 10.0233C11.6442 9.50634 11.9362 9.03088 12.3084 8.62168C12.6767 8.25085 13.1275 7.92168 13.6192 7.71502C14.1665 7.49527 14.7511 7.38322 15.3409 7.38502C16.0375 7.38502 16.6525 7.50918 17.185 7.79752C17.7184 8.08585 18.1275 8.41585 18.455 8.91085C18.7834 9.36418 19.03 9.90002 19.1934 10.4775C19.275 11.0542 19.3159 11.6317 19.275 12.2908H13.3325C13.3325 12.9508 13.5784 13.5692 13.9067 13.8992M16.4884 9.57085C16.2017 9.28252 15.7509 9.11752 15.2175 9.11752C14.9048 9.11283 14.5956 9.18343 14.3159 9.32335C14.07 9.44752 13.9067 9.61252 13.7425 9.77752C13.5907 9.93624 13.4907 10.1373 13.4559 10.3542C13.4142 10.5608 13.3734 10.725 13.3734 10.89H17.0617C16.98 10.2717 16.775 9.86002 16.4884 9.57085ZM12.8817 5.24168H17.4717V6.35502H12.8825L12.8817 5.24168Z" fill="var(--fill-0, white)"/>
</g>
</svg>
