<svg preserveAspectRatio="none" width="100%" height="100%" overflow="visible" style="display: block;" viewBox="0 0 20 20" fill="none" xmlns="http://www.w3.org/2000/svg">
<g id="social_icon">
<path id="Vector" d="M16.6583 9.64334C16.59 8.33161 16.1338 7.06968 15.3475 6.01751C15.1075 6.27513 14.8514 6.51728 14.5808 6.74251C13.7479 7.43362 12.8176 7.99803 11.82 8.41751C11.9591 8.70918 12.0866 8.99168 12.1991 9.25834V9.26084C12.2216 9.31168 12.2408 9.35918 12.2775 9.45168L12.2916 9.48501C13.5525 9.34334 14.8825 9.39584 16.1716 9.57084C16.3428 9.59307 16.505 9.61723 16.6583 9.64334ZM8.83748 3.43501C9.64982 4.57917 10.3987 5.76707 11.0808 6.99335C12.1 6.59168 12.9425 6.08501 13.6208 5.52085C13.8958 5.29251 14.1158 5.07751 14.2841 4.89168C13.0849 3.88324 11.5677 3.33127 10.0008 3.33335C9.60415 3.3339 9.21637 3.36751 8.83748 3.43418M3.54498 8.33084C4.11267 8.31666 4.67969 8.28247 5.24498 8.22834C6.61136 8.10623 7.96606 7.8772 9.29665 7.54335C8.60161 6.33496 7.8508 5.15953 7.04665 4.02085C6.18814 4.44627 5.43115 5.05131 4.82698 5.79494C4.22281 6.53858 3.7856 7.40342 3.54498 8.33084ZM4.81998 14.1958C5.21006 13.6307 5.64926 13.1012 6.13248 12.6133C7.34415 11.3717 8.77415 10.405 10.4291 9.87168L10.4808 9.85668C10.3433 9.55334 10.2141 9.28251 10.0841 9.02751C8.55415 9.47334 6.94248 9.75168 5.33665 9.89584C4.55331 9.96668 3.85081 9.99751 3.33415 10.0025C3.33288 11.5296 3.85707 13.0105 4.81998 14.1958ZM12.505 16.1792C12.1834 14.5586 11.7285 12.9674 11.145 11.4217C9.47831 12.0275 8.14831 12.9133 7.12081 13.97C6.7063 14.3888 6.33832 14.8512 6.02331 15.3492C7.17198 16.2065 8.56746 16.6688 10.0008 16.6667C10.859 16.6674 11.7093 16.5025 12.505 16.1808M14.0666 15.285C15.3676 14.2847 16.2539 12.8397 16.5558 11.2267C16.2725 11.1558 15.9133 11.085 15.5183 11.03C14.6401 10.9033 13.749 10.8941 12.8683 11.0025C13.3651 12.4012 13.7655 13.8324 14.0666 15.2858M10.0008 18.3333C5.39831 18.3333 1.66748 14.6025 1.66748 10C1.66748 5.39751 5.39831 1.66668 10.0008 1.66668C14.6033 1.66668 18.3341 5.39751 18.3341 10C18.3341 14.6025 14.6033 18.3333 10.0008 18.3333Z" fill="var(--fill-0, white)"/>
</g>
</svg>
