<svg preserveAspectRatio="none" width="100%" height="100%" overflow="visible" style="display: block;" viewBox="0 0 20 20" fill="none" xmlns="http://www.w3.org/2000/svg">
<g id="arrow">
<path id="Vector" d="M13.8341 9.17779L9.75078 5.09445C9.58412 4.92779 9.50412 4.73334 9.51078 4.51112C9.51745 4.2889 9.60439 4.09445 9.77162 3.92779C9.93828 3.77501 10.1327 3.69501 10.3549 3.68779C10.5772 3.68056 10.7716 3.76056 10.9383 3.92779L16.4383 9.42779C16.5216 9.51112 16.5808 9.6014 16.6158 9.69862C16.6508 9.79584 16.6677 9.90001 16.6666 10.0111C16.6655 10.1222 16.648 10.2264 16.6141 10.3236C16.5802 10.4208 16.5213 10.5111 16.4374 10.5945L10.9374 16.0945C10.7847 16.2472 10.5936 16.3236 10.3641 16.3236C10.1347 16.3236 9.93689 16.2472 9.77078 16.0945C9.60411 15.9278 9.52078 15.7297 9.52078 15.5003C9.52078 15.2708 9.60411 15.0731 9.77078 14.907L13.8341 10.8445L4.52161 10.8445C4.2855 10.8445 4.08745 10.7645 3.92745 10.6045C3.76745 10.4445 3.68773 10.2467 3.68828 10.0111C3.68884 9.77556 3.76884 9.57751 3.92828 9.41695C4.08773 9.2564 4.2855 9.17667 4.52161 9.17778L13.8341 9.17779Z" fill="var(--fill-0, white)"/>
</g>
</svg>
