<svg preserveAspectRatio="none" width="100%" height="100%" overflow="visible" style="display: block;" viewBox="0 0 20 20" fill="none" xmlns="http://www.w3.org/2000/svg">
<g id="Pole/exit">
<path id="Vector" fill-rule="evenodd" clip-rule="evenodd" d="M4.232 4.58946C4.55744 4.26403 5.08508 4.26403 5.41052 4.58946L9.64254 8.82149L13.8746 4.58946C14.2 4.26402 14.7276 4.26403 15.0531 4.58946C15.3785 4.9149 15.3785 5.44254 15.0531 5.76797L10.8211 10L15.0531 14.232C15.3785 14.5575 15.3785 15.0851 15.0531 15.4105C14.7276 15.736 14.2 15.736 13.8746 15.4105L9.64254 11.1785L5.41052 15.4105C5.08508 15.736 4.55744 15.736 4.232 15.4105C3.90657 15.0851 3.90657 14.5575 4.232 14.232L8.46403 10L4.232 5.76797C3.90657 5.44254 3.90657 4.9149 4.232 4.58946Z" fill="var(--fill-0, #050715)"/>
</g>
</svg>
