<svg preserveAspectRatio="none" width="100%" height="100%" overflow="visible" style="display: block;" viewBox="0 0 20 20" fill="none" xmlns="http://www.w3.org/2000/svg">
<g id="Arrows/Download">
<path id="Vector" fill-rule="evenodd" clip-rule="evenodd" d="M10 2.5C10.4602 2.5 10.8333 2.8731 10.8333 3.33333V11.3215L13.5774 8.57741C13.9028 8.25197 14.4305 8.25197 14.7559 8.57741C15.0814 8.90285 15.0814 9.43049 14.7559 9.75592L10.5893 13.9226C10.2638 14.248 9.73618 14.248 9.41074 13.9226L5.24408 9.75592C4.91864 9.43049 4.91864 8.90285 5.24408 8.57741C5.56951 8.25197 6.09715 8.25197 6.42259 8.57741L9.16667 11.3215V3.33333C9.16667 2.8731 9.53976 2.5 10 2.5ZM3.33333 13.3333C3.79357 13.3333 4.16667 13.7064 4.16667 14.1667V15.8333C4.16667 16.0543 4.25446 16.2663 4.41074 16.4226C4.56702 16.5789 4.77899 16.6667 5 16.6667H15C15.221 16.6667 15.433 16.5789 15.5893 16.4226C15.7455 16.2663 15.8333 16.0543 15.8333 15.8333V14.1667C15.8333 13.7064 16.2064 13.3333 16.6667 13.3333C17.1269 13.3333 17.5 13.7064 17.5 14.1667V15.8333C17.5 16.4964 17.2366 17.1323 16.7678 17.6011C16.2989 18.0699 15.663 18.3333 15 18.3333H5C4.33696 18.3333 3.70107 18.0699 3.23223 17.6011C2.76339 17.1323 2.5 16.4964 2.5 15.8333V14.1667C2.5 13.7064 2.8731 13.3333 3.33333 13.3333Z" fill="var(--fill-0, white)"/>
</g>
</svg>
