<svg preserveAspectRatio="none" width="100%" height="100%" overflow="visible" style="display: block;" viewBox="0 0 20 20" fill="none" xmlns="http://www.w3.org/2000/svg">
<g id="fluent:mail-16-filled">
<path id="Vector" d="M4.66667 3.5C3.95942 3.5 3.28115 3.77393 2.78105 4.26152C2.28095 4.74912 2 5.41044 2 6.1V6.3613L10 10.5616L18 6.3626V6.1C18 5.41044 17.719 4.74912 17.219 4.26152C16.7189 3.77393 16.0406 3.5 15.3333 3.5H4.66667ZM18 7.8381L10.316 11.872C10.2189 11.923 10.1103 11.9497 10 11.9497C9.8897 11.9497 9.78112 11.923 9.684 11.872L2 7.8381V13.9C2 14.5896 2.28095 15.2509 2.78105 15.7385C3.28115 16.2261 3.95942 16.5 4.66667 16.5H15.3333C16.0406 16.5 16.7189 16.2261 17.219 15.7385C17.719 15.2509 18 14.5896 18 13.9V7.8381Z" fill="var(--fill-0, #5E6167)"/>
</g>
</svg>
