<svg preserveAspectRatio="none" width="100%" height="100%" overflow="visible" style="display: block;" viewBox="0 0 20 20" fill="none" xmlns="http://www.w3.org/2000/svg">
<g id="Frame 2085663399">
<path id="Vector" fill-rule="evenodd" clip-rule="evenodd" d="M10.1883 18.6754C8.46829 18.6754 7.66896 18.4243 6.27955 17.4199C5.4007 18.5499 2.61769 19.4329 2.49632 17.9221C2.49632 16.788 2.24521 15.8297 1.96063 14.7834C1.62166 13.4944 1.23663 12.059 1.23663 9.97905C1.23663 5.01146 5.31282 1.27427 10.1423 1.27427C14.9759 1.27427 18.7634 5.1956 18.7634 10.0251C18.7796 14.7799 14.9431 18.6501 10.1883 18.6754ZM10.2595 5.56806C7.90752 5.4467 6.07448 7.07467 5.66854 9.62751C5.33374 11.7409 5.92801 14.3147 6.43439 14.4486C6.67712 14.5072 7.28813 14.0134 7.66896 13.6325C8.29869 14.0676 9.03201 14.3289 9.79495 14.39C12.232 14.5072 14.3143 12.6519 14.4779 10.2176C14.5732 7.7781 12.6968 5.71186 10.2595 5.57225V5.56806Z" fill="var(--fill-0, #805EFF)"/>
</g>
</svg>
