<svg preserveAspectRatio="none" width="100%" height="100%" overflow="visible" style="display: block;" viewBox="0 0 20 20" fill="none" xmlns="http://www.w3.org/2000/svg">
<g id="Pole/menu 2">
<g id="Vector">
<path d="M1.66667 4.16667C1.66667 3.70643 2.03976 3.33333 2.5 3.33333H17.5C17.9602 3.33333 18.3333 3.70643 18.3333 4.16667C18.3333 4.6269 17.9602 5 17.5 5H2.5C2.03976 5 1.66667 4.6269 1.66667 4.16667Z" fill="var(--fill-0, #050715)"/>
<path d="M1.66667 10C1.66667 9.53976 2.03976 9.16667 2.5 9.16667H17.5C17.9602 9.16667 18.3333 9.53976 18.3333 10C18.3333 10.4602 17.9602 10.8333 17.5 10.8333H2.5C2.03976 10.8333 1.66667 10.4602 1.66667 10Z" fill="var(--fill-0, #050715)"/>
<path d="M1.66667 15.8333C1.66667 15.3731 2.03976 15 2.5 15H17.5C17.9602 15 18.3333 15.3731 18.3333 15.8333C18.3333 16.2936 17.9602 16.6667 17.5 16.6667H2.5C2.03976 16.6667 1.66667 16.2936 1.66667 15.8333Z" fill="var(--fill-0, #050715)"/>
</g>
</g>
</svg>
