<svg preserveAspectRatio="none" width="100%" height="100%" overflow="visible" style="display: block;" viewBox="0 0 16.749 16.2512" fill="none" xmlns="http://www.w3.org/2000/svg">
<g id="Group">
<g id="Vector">
</g>
<path id="Vector_2" fill-rule="evenodd" clip-rule="evenodd" d="M15.0141 0.0978876C15.22 0.0112134 15.4454 -0.01868 15.6668 0.0113186C15.8882 0.0413171 16.0975 0.130111 16.273 0.268459C16.4484 0.406806 16.5836 0.589649 16.6644 0.797956C16.7452 1.00626 16.7687 1.23242 16.7324 1.45289L14.8424 12.9171C14.6591 14.0229 13.4457 14.6571 12.4316 14.1062C11.5832 13.6454 10.3232 12.9354 9.18991 12.1946C8.62324 11.8237 6.88741 10.6362 7.10074 9.79122C7.28407 9.06872 10.2007 6.35372 11.8674 4.73955C12.5216 4.10539 12.2232 3.73955 11.4507 4.32289C9.53241 5.77122 6.45241 7.97372 5.43407 8.59372C4.53574 9.14039 4.06741 9.23372 3.50741 9.14039C2.48574 8.97039 1.53824 8.70706 0.764907 8.38622C-0.280093 7.95289 -0.22926 6.51622 0.764073 6.09789L15.0141 0.0978876Z" fill="var(--fill-0, #249BD7)"/>
</g>
</svg>
